# xmcd
#
# Track frame offsets:
#	150
#	13447
#	24577
#	50762
#	73820
#	95735
#	108232
#	122880
#	136207
#	159405
#	171002
#	183685
#	199155
#	216740
#
# Disc length: 3150 seconds
#
# Revision: 5
# Processed by: cddbd v1.5.2PL0 Copyright (c) Steve Scherf et al.
# Submitted via: audiograbber 1.83.01
#
DISCID=db0c4c0e
DTITLE=Bob Margolin - Up and In
DYEAR=1997
DGENRE=Blues
TTITLE0=The Window
TTITLE1=Alien's Blues
TTITLE2=Imagination
TTITLE3=She And The Devil
TTITLE4=Blues For Bartenders
TTITLE5=Why Are People Like That?
TTITLE6=Goin' Back Out On The Road
TTITLE7=Up and In
TTITLE8=Coffee Break
TTITLE9='bout Out
TTITLE10=Not What You Said Last Night
TTITLE11=Long Ago And Far Away
TTITLE12=Just Because
TTITLE13=Later For You
EXTD=
EXTT0=
EXTT1=
EXTT2=
EXTT3=
EXTT4=
EXTT5=
EXTT6=
EXTT7=
EXTT8=
EXTT9=
EXTT10=
EXTT11=
EXTT12=
EXTT13=
PLAYORDER=
